<svg width="20" height="20" xmlns="http://www.w3.org/2000/svg">
 <g>
  <title _mstHash="11">Layer 1</title>
  <path fill="none" opacity="undefined" d="m10,17.70312c-3.97963,0 -7.20312,-3.27944 -7.20312,-7.32812c0,-4.04869 3.2235,-7.32812 7.20312,-7.32812c3.97963,0 7.20312,3.27944 7.20312,7.32812c0,4.04869 -3.2235,7.32812 -7.20312,7.32812z" id="svg_11" stroke="#707070"/>
  <path fill="none" opacity="undefined" d="m10,11.09375l0,-6.5625" id="svg_13" stroke="#707070"/>
  <path id="svg_16" d="m7.8125,2.28125c0,-0.54338 0.45662,-1 1,-1l2.25,0c0.54338,0 1,0.45662 1,1l0,-0.1875c0,0.54338 -0.45662,1 -1,1l-2.25,0c-0.54338,0 -1,-0.45662 -1,-1l0,0.1875z" opacity="undefined" stroke="#707070" fill="none"/>
  <line fill="none" stroke="#707070" x1="9.70313" y1="10.0625" x2="14.73438" y2="13.8125" id="svg_19"/>
 </g>

</svg>